<svg width="31" height="28" viewBox="0 0 31 28" fill="none" xmlns="http://www.w3.org/2000/svg">
	<path
		d="M15.5 25.0004C15.5 25.0004 3 18.0003 3 9.50013C3.00025 7.99777 3.52082 6.54187 4.47318 5.37995C5.42555 4.21803 6.75093 3.42182 8.22399 3.12669C9.69705 2.83156 11.2269 3.05572 12.5533 3.76107C13.8798 4.46641 14.921 5.6094 15.5 6.99571C16.079 5.6094 17.1202 4.46642 18.4467 3.76107C19.7731 3.05572 21.3029 2.83156 22.776 3.12669C24.2491 3.42182 25.5744 4.21803 26.5268 5.37995C27.4792 6.54187 27.9997 7.99777 28 9.50013C28 18.0003 15.5 25.0004 15.5 25.0004Z"
		fill="#222E34" stroke="#222E34" stroke-width="2.53005" stroke-linecap="round" stroke-linejoin="round"/>
</svg>
